# xmcd
#
# Track frame offsets:
#	150
#	19993
#	44447
#	70617
#	98322
#	117889
#	141278
#	162397
#	185046
#	206211
#	223596
#	248595
#	264911
#
# Disc length: 3807 seconds
#
# Revision: 0
# Processed by: cddbd v1.5.1PL0 Copyright (c) Steve Scherf et al.
# Submitted via: audiograbber 1.83.01
#
DISCID=b80edd0d
DTITLE=Various Artist - Blues Alive VII
DYEAR=1900
DGENRE=
TTITLE0=Peter Lipa - Pani v najlepsich rokoch
TTITLE1=Bobos and Frozen Dozen - Caldonia
TTITLE2=Blues No More - Little Red Rooster
TTITLE3=Jan Spaleny and ASPM - Az srdce useda
TTITLE4=Lorenzo Thompson - Jan Korinek and Groove - Pretty Woman
TTITLE5=Lady I - Merry Go Round
TTITLE6=Cerny mosty - Something About Baby
TTITLE7=Mother's Follow Chairs - Top Blues
TTITLE8=Hoochie Coochie Band - Mean Ole' World
TTITLE9=B.B.Band - Big Boss Man
TTITLE10=The Holmes Brothers - Love Train
TTITLE11=David Murphy Band - Shake That Thing
TTITLE12=Hugo Race - Just A Child
EXTD=
EXTT0=
EXTT1=
EXTT2=
EXTT3=
EXTT4=
EXTT5=
EXTT6=
EXTT7=
EXTT8=
EXTT9=
EXTT10=
EXTT11=
EXTT12=
PLAYORDER=
